<?xml version="1.0" encoding="utf-8"?>
<!-- Generator: Adobe Illustrator 26.0.1, SVG Export Plug-In . SVG Version: 6.00 Build 0)  -->
<svg version="1.1" id="Layer_1" xmlns="http://www.w3.org/2000/svg" xmlns:xlink="http://www.w3.org/1999/xlink" x="0px" y="0px"
	 viewBox="0 0 800 800" style="enable-background:new 0 0 800 800;" xml:space="preserve">
<g>
	<g>
		<path d="M392.9,401.7l1.4,0.8v14.3c-2.5,0.7-4.9,1.5-7.2,2.7c-18.5-2.2-30.3-9.2-30.3-15.8c0-3,2.4-6.1,6.8-8.8
			c1.6,1.3,3.2,2.4,4.9,3.1c2.2,1,4.6,1.5,7.1,1.5c2.2,0,4.5-0.4,7-1.2c1.7-0.5,3.4-1.3,5.3-2.2l3.8,4.7
			C392,401.1,392.4,401.4,392.9,401.7z"/>
		<path d="M404.1,420v-12.2c0.4,0.1,0.7,0.2,1.1,0.4c2.3,0.9,4.5,1.9,6.4,3.7c2.1,2,2.8,4.4,2.5,7.2
			C411,419.5,407.6,419.8,404.1,420z"/>
		<path d="M441.6,403.5c0,5-6.7,10.2-17.8,13.4c-0.2-6.2-3.1-11-8.3-14.7c-2.6-1.8-5.4-3.1-8.4-4.1c2.4-0.9,4.9-2.1,7.3-3.5
			c2.3,1.1,4.5,2,6.5,2.6c2.8,0.8,5.3,1.3,7.8,1.3c2.3,0,4.5-0.4,6.5-1c0.7-0.2,1.4-0.5,2.1-0.8h0
			C440.2,398.8,441.6,401.2,441.6,403.5z"/>
		<path d="M356.8,412c5.1,4.7,14.3,8.5,25.7,10.4c-4.1,3.4-6.4,7.8-6.6,13.3c-11.9-3.1-19.1-8.4-19.1-13.5V412z"/>
		<path d="M388.1,430.6c1.8-1.6,3.9-2.6,6.1-3.4v11.1c-3.1-0.1-6.1-0.4-8.9-0.8C385.2,434.8,386,432.4,388.1,430.6z"/>
		<path d="M412.7,437.6c-2.7,0.4-5.6,0.6-8.6,0.7v-14.7c2.1-0.1,4.2-0.2,6.2-0.5c-1.1,1.5-1.7,3.4-1.9,5.6
			C408.2,432.2,410,435.6,412.7,437.6z"/>
		<path d="M422.9,429.6c-0.2,2.8-2.6,4.9-5.2,4.6c-2.7-0.2-4.6-2.7-4.4-5.4c0.2-2.8,2.5-4.9,5.2-4.6
			C421.1,424.4,423.1,426.9,422.9,429.6z"/>
		<path d="M441.6,412v10.2c0,4.5-5.7,9.3-15.4,12.4c0.9-1.5,1.4-3.2,1.5-5.1c0.1-3.3-1.1-6-3.6-8.2c-0.2-0.2-0.4-0.4-0.4-0.6
			C431.5,418.7,437.7,415.6,441.6,412z"/>
		<path d="M371.6,447.9c0,2,0.6,3.9,1.5,5.4c-10.3-3.1-16.4-8-16.4-12.7v-9.7c4,3.8,10.6,6.7,18.9,8.7c-0.1,0.1-0.1,0.2-0.2,0.2
			C372.9,441.9,371.6,444.6,371.6,447.9z"/>
		<path d="M381.5,452.9c-2.6,0.2-4.9-2-5.1-4.8c-0.2-2.8,1.9-5.2,4.5-5.3c2.6-0.2,4.9,2,5.1,4.8
			C386.2,450.3,384.2,452.7,381.5,452.9z"/>
		<path d="M388.9,441.7c1.8,0.2,3.6,0.3,5.4,0.3v14.7c-2.6-0.1-5.1-0.3-7.5-0.6c2.5-1.9,4.2-5.1,4.1-8.5
			C390.8,445.3,390.1,443.3,388.9,441.7z"/>
		<path d="M441.6,430.9v9.7c0,7.3-14.9,15.1-37.5,16.1V442C420.9,441.3,434.8,437.2,441.6,430.9z"/>
		<path d="M389.8,470.8c0.4,1.5,1.1,2.9,2.1,4c-21.3-1.4-35.1-8.9-35.1-16v-9.5c6.6,6.2,20.1,10.2,36.4,11
			C390.1,462.8,388.8,466.9,389.8,470.8z"/>
		<path d="M403.1,465.2c0.6,0.8,1,1.9,0.9,3c0,1.1-0.4,2.2-0.9,3c-0.9,1.3-2.3,2.1-3.9,2.1c-1.5,0-2.9-0.8-3.7-2c-0.6-0.8-1-1.9-1-3
			c0-1.2,0.4-2.2,1-3.1c0.9-1.2,2.3-2,3.9-2C400.9,463.2,402.3,464,403.1,465.2z"/>
		<path d="M441.6,449.3v9.5c0,7.1-13.8,14.6-35.1,16c0.8-0.9,1.4-2,1.8-3.1c1.5-4.2,0.2-8.8-3.1-11.4
			C421.5,459.5,435,455.5,441.6,449.3z"/>
	</g>
	<g>
		<path d="M396.5,395.9c0,0.1,0,0.3,0,0.4c0,0.7,0,1.3-0.1,1.9c0,0.9,0,1.7,0,2.3l-2.4-1l0,0c0,0-0.1,0-0.1-0.1
			c-0.1-0.1-0.2-0.2-0.3-0.3l-5.1-6.3c-4.6,2.5-8.9,4-13,4c-3.3,0-6.5-1-9.6-3.3c-0.8-0.6-1.6-1.3-2.4-2.1c-2.7-2.6-4.9-6-6.8-9.7
			c-7.8-15.2-9.4-35.9-9.4-35.9s24.3,0.8,39.3,10.4c-0.6,1.4-1.2,2.7-1.6,4.1l0,0l0,0c-0.6,1.8-1.1,3.6-1.4,5.3
			c-0.3,1.7-0.5,3.3-0.5,4.9c0,3.1,0.5,5.9,1.6,8.4c0.1,0.3,0.3,0.7,0.5,1L363,361.3l25.2,26.3l5.9,6.2L396.5,395.9z"/>
		<polygon points="394,399.4 394,399.4 394,399.4 		"/>
	</g>
	<g>
		<path d="M451.6,363c-0.2,8.2-2.1,17.1-6.3,23.5c-1.4,2.1-3.1,4-5,5.5c-1.7,1.3-3.5,2.2-5.3,2.9h0c-2,0.7-4.1,1.1-6.2,1.1
			c-4.7,0-9.5-1.7-14.4-4.2c-0.4,0.2-0.7,0.4-1.1,0.6c0,0,0,0-0.1,0c0,0,0,0,0,0c-3.3,1.5-6.7,2.8-10.2,3.8
			c-0.2,0.1-0.4,0.1-0.5,0.1c-0.1,0-0.3,0-0.4,0c-0.1-1.1-0.3-2.3-0.4-3.4c0,0,0,0,0,0c0-0.1,0-0.3,0-0.4c0,0,0,0,0-0.1c0,0,0,0,0,0
			c3.9-1,7.8-2.4,11.5-3.9c0,0,0,0,0,0c0.2-0.1,0.4-0.2,0.6-0.3h0c7.7-4.2,14.8-10.2,20.5-16.6c-6.2,4.8-10.3,8.4-15.6,11.4
			c1.7-1.3,3.3-2.5,4.6-3.8l0,0l0,0c2.4-2.3,4.3-4.7,5.6-7.2c1.2-2.2,2-4.6,2.4-7.2l0.1,0l0.2-1.7c0,0,0,0,0,0l0.1-0.5l0,0
			c0.2-2.5,0.2-5.3-0.1-8.5c2.2-0.8,4.6-1.8,7.1-3.4c6.9-4.3,10.9-7.7,11.1-7.7c0,0,0,0,0,0c0,0,0,0,0,0
			C449.7,342.7,452,352.2,451.6,363z"/>
		<path d="M413.3,392.4C413.3,392.4,413.3,392.4,413.3,392.4C413.3,392.4,413.3,392.4,413.3,392.4L413.3,392.4z"/>
		<path d="M413.3,392.4C413.2,392.4,413.2,392.4,413.3,392.4L413.3,392.4C413.2,392.4,413.2,392.4,413.3,392.4z"/>
	</g>
	<g>
		<g>
			<path d="M429.2,362.6c-0.3,3-1.1,5.6-2.3,7.9c-1.2,2.4-2.9,4.5-5.1,6.5c-3.5,3.4-8.4,6.5-14,9.5c-0.4,0.2-0.9,0.5-1.3,0.7h0
				c-0.2,0.1-0.4,0.2-0.7,0.3c0-0.1,0-0.3,0-0.4c-0.3-3.9-0.3-7.8,0-11.8c0-0.4,0-0.8,0.1-1.1c0,0,0,0,0,0
				c0.9-10.9,3.9-21.9,8.7-32.3c-3.9,7.3-7.3,15.1-9.7,23.1c-0.6,2.2-3.5,12.9-3.1,25.2c0,0.7,0.1,1.4,0.1,2c0,0,0,0,0,0
				c0,0,0,0,0,0.1c0,0.1,0,0.3,0,0.4c0,0,0,0,0,0c0.1,1.2,0.2,2.3,0.4,3.4c0,0,0,0,0,0l0.1,0.7c0,0,0,0,0,0l0.1,0.6l0,0
				c0.1,0.7,0.2,1.3,0.3,2c0.1,0.7-0.4,1.4-1.2,1.7c-0.1,0-0.2,0.1-0.4,0.1l-3.3,0.4c-0.1,0-0.1,0-0.2,0c-0.7,0-1.1-0.4-1.1-1
				c0-0.1,0-0.2,0-0.3c0-0.6,0-1.4,0-2.3c0-0.6,0-1.2,0.1-1.9c0-0.1,0-0.2,0-0.4c0.1-2.6,0.3-5.8,0.7-9.2c-0.8-0.3-1.6-0.7-2.4-1.1
				c-7.9-4-11.6-11.8-7.5-24.5c0.4-1.2,0.9-2.4,1.4-3.5c2-4.4,4.7-8.5,7.9-12.2c4-4.7,8.5-8.7,12.6-11.6c8.4-6.1,15.3-8,15.3-8.2
				c0,0,0,0,0,0h0c0.1,0,0.8,6.3,2.2,13.5c0.8,4.9,2,10.2,2.5,15.4C429.4,357.3,429.4,360,429.2,362.6z"/>
			<path d="M402.3,397.6L402.3,397.6l-0.1-0.6C402.2,397.2,402.2,397.4,402.3,397.6z"/>
		</g>
	</g>
</g>
</svg>
