<?xml version="1.0" encoding="utf-8"?>
<!-- Generator: Adobe Illustrator 26.0.1, SVG Export Plug-In . SVG Version: 6.00 Build 0)  -->
<svg version="1.1" id="Layer_1" xmlns="http://www.w3.org/2000/svg" xmlns:xlink="http://www.w3.org/1999/xlink" x="0px" y="0px"
	 viewBox="0 0 800 800" style="enable-background:new 0 0 800 800;" xml:space="preserve">
<style type="text/css">
	.st0{fill:#FFFFFF;}
</style>
<g>
	<g>
		<path class="st0" d="M516.6,344.8c-1,1-1.9,2.1-2.7,3.1l0,0l0,0c-1.1,1.4-2.1,2.9-2.9,4.3c-0.8,1.4-1.5,2.8-2,4.2
			c-1,2.7-1.4,5.4-1.2,8c0,0.3,0.1,0.7,0.1,1l-14-23.5l13.6,30h-15.7v0h-0.1v0h-4.9c-0.1-0.2-0.2-0.3-0.3-0.5
			c-0.5-0.8-1-1.7-1.5-2.6c-1.5-3.2-2.5-6.9-3-10.7c-2.1-15.9,3-34.9,3-34.9S506.3,331.5,516.6,344.8z"/>
		<polygon class="st0" points="509.6,385.5 509.6,385.5 509.6,385.5 		"/>
	</g>
	<g>
		<path class="st0" d="M577,352.7c-0.1,0-1,9.1-4.8,18.6c-2.8,7.2-7.2,14.6-13,18.9c-1.9,1.5-4,2.6-6.2,3.3c-2,0.6-3.8,0.9-5.6,0.9
			v0c-2,0-4-0.3-5.8-1c-3.5-1.2-6.6-3.5-9.7-6.4h6v-7c5.7-1.6,11.3-4,16.2-6.7c-6.5,2.1-11.1,4-16.2,5c-0.4,0.1-0.8,0.2-1.2,0.2
			c0.4-0.1,0.8-0.2,1.2-0.4c1.5-0.5,2.9-1,4.1-1.6l0,0l0,0c2.9-1.3,5.3-2.8,7.2-4.7c1.7-1.6,3.2-3.5,4.4-5.7l0.1,0l0.7-1.4
			c0,0,0,0,0,0l0.2-0.5l0,0c1-2.2,1.8-4.7,2.6-7.6c2.2,0,4.6-0.2,7.4-0.8C572.1,354.4,576.8,352.6,577,352.7
			C577,352.7,577,352.7,577,352.7z"/>
		<path class="st0" d="M528.9,385.4L528.9,385.4C528.9,385.4,528.9,385.4,528.9,385.4C528.9,385.4,528.9,385.4,528.9,385.4z"/>
		<path class="st0" d="M528.9,385.4C528.8,385.4,528.8,385.4,528.9,385.4L528.9,385.4C528.8,385.4,528.8,385.4,528.9,385.4z"/>
	</g>
	<g>
		<g>
			<path class="st0" d="M557.6,342.3c-0.8,4.6-1.4,9.7-2.7,14.5c-0.6,2.5-1.4,4.9-2.5,7.1c-1.2,2.6-2.7,4.6-4.6,6.3
				c-1.8,1.7-4,3.1-6.6,4.2c-1,0.5-2.1,0.9-3.3,1.3v-3.8h-12.1c0.5-1.4,1-2.7,1.6-4c0.1-0.3,0.3-0.7,0.4-1c0,0,0,0,0,0
				c4.2-9.4,10.4-18.2,17.9-26c-5.8,5.3-11.3,11.2-15.9,17.5c-0.9,1.3-4.5,6.4-7.7,13.5h-9c-4.5-5.9-4.6-13.4,2.4-22.5
				c0.7-0.9,1.5-1.8,2.3-2.7c3.1-3.3,6.9-6.1,10.8-8.4c5-2.9,10.3-5,14.9-6.3c9.4-2.8,16.1-2.3,16.1-2.5c0,0,0,0,0,0v0
				C559.9,329.6,558.6,335.4,557.6,342.3z"/>
		</g>
	</g>
	<g>
		<path class="st0" d="M262.1,409.7c-0.8-1.8-2.1-3.4-3.6-4.8c-1.6-1.4-3.5-2.6-5.7-3.8c-2.2-1.1-4.7-2.3-7.5-3.4
			c-1.3-0.5-2.5-1-3.5-1.5c-1.1-0.5-2-1-2.7-1.5s-1.3-1.1-1.7-1.8c-0.4-0.7-0.6-1.5-0.6-2.5c0-1.2,0.3-2.3,0.9-3.3
			c0.6-1,1.5-1.8,2.7-2.4c1.2-0.6,2.6-0.9,4.3-0.9c1.5,0,3,0.2,4.4,0.6c1.5,0.4,2.8,1,4.1,1.7c1.3,0.7,2.4,1.5,3.5,2.3l4.8-9
			c-1.3-1.1-2.8-2.1-4.7-3c-1.9-0.9-3.9-1.7-6-2.2c-2.1-0.6-4.3-0.9-6.4-0.9c-2.8,0-5.4,0.5-7.7,1.4c-2.3,0.9-4.3,2.2-6,3.8
			c-1.7,1.6-3,3.4-3.9,5.5c-0.9,2.1-1.4,4.2-1.4,6.5c0,1.9,0.3,3.6,1,5.1c0.7,1.5,1.5,2.9,2.6,4.1c1.1,1.2,2.4,2.3,3.8,3.2
			c1.4,0.9,2.9,1.7,4.5,2.4c2.1,0.9,4,1.8,5.7,2.5c1.7,0.8,3.1,1.6,4.2,2.3c1.1,0.8,2,1.7,2.6,2.7c0.6,1,0.9,2.2,0.9,3.6
			c0,1.5-0.4,2.8-1.1,3.9c-0.7,1-1.8,1.8-3,2.3c-1.3,0.5-2.7,0.8-4.4,0.8c-1.8,0-3.5-0.2-5-0.7c-1.6-0.5-3-1.1-4.4-1.9
			c-1.4-0.8-2.6-1.6-3.7-2.5c-1.1-0.9-2-1.6-2.8-2.3l-5.9,9.5c0.8,0.7,1.8,1.6,3.1,2.6c1.3,1,2.9,1.9,4.7,2.8
			c1.8,0.9,3.9,1.7,6.2,2.3c2.3,0.6,4.8,0.9,7.5,0.9c4.3,0,8-0.7,11.2-2.1c3.2-1.4,5.7-3.5,7.5-6.1c1.8-2.7,2.7-5.9,2.7-9.6
			C263.3,413.7,262.9,411.5,262.1,409.7z"/>
		<path class="st0" d="M312.3,382.3c-1.7-2.6-4-4.6-7-5.9c-3-1.3-6.4-2-10.2-2h-19.9V433h11.5v-22.5h8.5c3.8,0,7.2-0.7,10.2-2.2
			c3-1.5,5.3-3.6,7-6.3c1.7-2.7,2.5-6,2.5-9.9C314.8,388.2,314,384.9,312.3,382.3z M301.2,397.6c-1,1.3-2.4,2.3-4.1,2.9
			c-1.7,0.6-3.5,0.9-5.6,0.9h-4.9v-17.8h4.9c2,0,3.9,0.3,5.6,0.9c1.7,0.6,3.1,1.5,4.1,2.8c1,1.3,1.6,3,1.6,5.2
			C302.8,394.6,302.3,396.3,301.2,397.6z"/>
		<path class="st0" d="M352,409.6c2.7-0.8,5.1-2,7.1-3.6c2-1.6,3.5-3.6,4.5-6c1-2.3,1.6-5,1.6-7.9c0-3.7-0.8-6.9-2.4-9.6
			c-1.6-2.7-3.9-4.7-6.9-6.1c-3-1.4-6.4-2.1-10.4-2.1h-19.9V433H337v-22.1h2.7l17,22.1h14.6L352,409.6z M347.9,400.3
			c-1.7,0.7-3.7,1.1-6.1,1.1H337v-17.8h4.9c3.6,0,6.4,0.8,8.3,2.3c1.9,1.5,2.9,3.7,2.9,6.5c0,1.9-0.4,3.5-1.3,4.8
			C350.9,398.6,349.6,399.6,347.9,400.3z"/>
		<path class="st0" d="M431.6,391.9c-1.5-3.7-3.6-6.9-6.3-9.7c-2.7-2.8-5.8-5-9.4-6.5c-3.6-1.6-7.4-2.3-11.5-2.3
			c-4.1,0-7.9,0.8-11.5,2.3c-3.6,1.6-6.7,3.7-9.4,6.5c-2.7,2.8-4.8,6-6.3,9.7c-1.5,3.7-2.3,7.6-2.3,11.9c0,4.2,0.8,8.2,2.3,11.9
			c1.5,3.7,3.6,6.9,6.3,9.7c2.7,2.8,5.8,5,9.4,6.5c3.6,1.6,7.4,2.3,11.5,2.3c4.1,0,7.9-0.8,11.5-2.3c3.6-1.6,6.7-3.7,9.4-6.5
			c2.7-2.8,4.8-6,6.3-9.7c1.5-3.7,2.3-7.6,2.3-11.9C433.9,399.5,433.1,395.6,431.6,391.9z M420.3,411.5c-0.8,2.4-2,4.4-3.6,6.1
			c-1.6,1.7-3.4,3.1-5.5,4c-2.1,0.9-4.4,1.4-6.9,1.4c-2.5,0-4.8-0.5-6.9-1.4c-2.1-0.9-3.9-2.3-5.4-4c-1.5-1.7-2.7-3.8-3.6-6.1
			c-0.8-2.4-1.3-5-1.3-7.7c0-2.8,0.4-5.4,1.3-7.8c0.8-2.4,2-4.4,3.6-6.1c1.5-1.7,3.4-3.1,5.4-4c2.1-0.9,4.4-1.4,6.9-1.4
			c2.5,0,4.8,0.5,6.9,1.4c2.1,0.9,3.9,2.3,5.5,4c1.6,1.7,2.7,3.8,3.6,6.1c0.8,2.4,1.3,4.9,1.3,7.8
			C421.5,406.6,421.1,409.1,420.3,411.5z"/>
		<g>
			<path class="st0" d="M486.8,374.4v37.8c0,7.2-1.9,12.7-5.6,16.4c-3.8,3.7-9.3,5.5-16.7,5.5c-7.3,0-12.9-1.8-16.6-5.5
				c-3.8-3.7-5.6-9.2-5.6-16.4v-37.8h11.5v34.5c0,5,0.8,8.5,2.5,10.7c1.7,2.2,4.4,3.3,8.3,3.3c3.8,0,6.6-1.1,8.3-3.3
				c1.7-2.2,2.5-5.7,2.5-10.7v-34.5H486.8z"/>
		</g>
		<g>
			<path class="st0" d="M528.8,385.4C528.8,385.4,528.8,385.4,528.8,385.4C528.8,385.4,528.8,385.4,528.8,385.4L528.8,385.4z"/>
			<path class="st0" d="M528.9,385.4C528.9,385.4,528.9,385.4,528.9,385.4L528.9,385.4C528.9,385.4,528.9,385.4,528.9,385.4z"/>
			<path class="st0" d="M494.3,374.4v10.2h14.8V433h11.5v-48.5h14.9v-10.2H494.3z M509.6,385.5C509.6,385.5,509.6,385.5,509.6,385.5
				L509.6,385.5L509.6,385.5z"/>
			<polygon class="st0" points="509.6,385.5 509.6,385.5 509.6,385.5 			"/>
		</g>
	</g>
	<g>
		<path class="st0" d="M232.4,476.7v-32.2h-10.9v-2.1h24.2v2.1h-11v32.2H232.4z"/>
		<path class="st0" d="M252,476.7v-34.4h16.9v2h-14.6v14.1h14.1v2h-14.1v14.2h14.6v2H252z"/>
		<path class="st0" d="M292.9,477.3c-2.6,0-4.9-0.5-7.1-1.4c-2.2-0.9-4.1-2.2-5.7-3.8c-1.6-1.6-2.9-3.5-3.8-5.7
			c-0.9-2.2-1.3-4.5-1.3-7c0-2.5,0.4-4.9,1.3-7c0.9-2.2,2.2-4,3.8-5.7c1.6-1.6,3.5-2.9,5.7-3.8c2.2-0.9,4.6-1.4,7.1-1.4
			c2.2,0,4.2,0.3,6.1,1c1.9,0.6,3.6,1.5,5,2.7l-1.1,1.9c-1.3-1.1-2.8-1.9-4.5-2.4c-1.7-0.6-3.5-0.8-5.4-0.8c-2.3,0-4.4,0.4-6.3,1.2
			c-1.9,0.8-3.6,1.9-5,3.3c-1.4,1.4-2.5,3.1-3.2,5c-0.8,1.9-1.1,3.9-1.1,6.1c0,2.2,0.4,4.2,1.1,6.1c0.8,1.9,1.8,3.5,3.2,5
			c1.4,1.4,3,2.5,5,3.3c1.9,0.8,4,1.2,6.3,1.2c1.9,0,3.7-0.3,5.4-0.8c1.7-0.6,3.2-1.4,4.5-2.4l1.1,1.9c-1.5,1.1-3.1,2-5,2.7
			C297.1,477,295.1,477.3,292.9,477.3z"/>
		<path class="st0" d="M310.9,476.7v-34.4h2.3v16.1h20.2v-16.1h2.3v34.4h-2.3v-16.2h-20.2v16.2H310.9z"/>
		<path class="st0" d="M346,476.7v-34.4h2.3l19.4,30.4v-30.4h2.3v34.4h-2.3l-19.4-30.4v30.4H346z"/>
		<path class="st0" d="M395.8,477.3c-2.4,0-4.7-0.5-6.7-1.4c-2.1-0.9-3.9-2.2-5.5-3.8c-1.6-1.6-2.8-3.5-3.7-5.7
			c-0.9-2.2-1.3-4.5-1.3-6.9c0-2.5,0.4-4.8,1.3-7c0.9-2.2,2.1-4,3.7-5.7c1.6-1.6,3.4-2.9,5.5-3.8c2.1-0.9,4.3-1.4,6.7-1.4
			c2.4,0,4.7,0.5,6.7,1.4c2.1,0.9,3.9,2.2,5.5,3.8c1.6,1.6,2.8,3.5,3.7,5.7c0.9,2.2,1.3,4.5,1.3,7c0,2.5-0.4,4.8-1.3,6.9
			c-0.9,2.2-2.1,4.1-3.7,5.7c-1.6,1.6-3.4,2.9-5.5,3.8C400.5,476.9,398.2,477.3,395.8,477.3z M395.8,475.1c2.1,0,4-0.4,5.8-1.2
			c1.8-0.8,3.4-1.9,4.7-3.4c1.4-1.4,2.4-3.1,3.2-5c0.8-1.9,1.1-3.9,1.1-6.1c0-2.2-0.4-4.2-1.1-6.1c-0.8-1.9-1.8-3.5-3.2-5
			c-1.4-1.4-2.9-2.5-4.7-3.4c-1.8-0.8-3.7-1.2-5.8-1.2c-2.1,0-4,0.4-5.8,1.2c-1.8,0.8-3.4,1.9-4.7,3.4c-1.4,1.4-2.4,3.1-3.2,5
			c-0.8,1.9-1.1,3.9-1.1,6.1c0,2.2,0.4,4.2,1.1,6.1c0.8,1.9,1.8,3.5,3.2,5c1.4,1.4,2.9,2.5,4.7,3.4
			C391.8,474.7,393.8,475.1,395.8,475.1z"/>
		<path class="st0" d="M421.8,476.7v-34.4h2.3v32.4h14.9v2H421.8z"/>
		<path class="st0" d="M458.2,477.3c-2.4,0-4.7-0.5-6.7-1.4c-2.1-0.9-3.9-2.2-5.5-3.8c-1.6-1.6-2.8-3.5-3.7-5.7
			c-0.9-2.2-1.3-4.5-1.3-6.9c0-2.5,0.4-4.8,1.3-7c0.9-2.2,2.1-4,3.7-5.7c1.6-1.6,3.4-2.9,5.5-3.8c2.1-0.9,4.3-1.4,6.7-1.4
			c2.4,0,4.7,0.5,6.7,1.4c2.1,0.9,3.9,2.2,5.5,3.8c1.6,1.6,2.8,3.5,3.7,5.7c0.9,2.2,1.3,4.5,1.3,7c0,2.5-0.4,4.8-1.3,6.9
			c-0.9,2.2-2.1,4.1-3.7,5.7c-1.6,1.6-3.4,2.9-5.5,3.8C462.8,476.9,460.6,477.3,458.2,477.3z M458.2,475.1c2.1,0,4-0.4,5.8-1.2
			c1.8-0.8,3.4-1.9,4.7-3.4c1.4-1.4,2.4-3.1,3.2-5c0.8-1.9,1.1-3.9,1.1-6.1c0-2.2-0.4-4.2-1.1-6.1c-0.8-1.9-1.8-3.5-3.2-5
			c-1.4-1.4-2.9-2.5-4.7-3.4c-1.8-0.8-3.7-1.2-5.8-1.2c-2.1,0-4,0.4-5.8,1.2c-1.8,0.8-3.4,1.9-4.7,3.4c-1.4,1.4-2.4,3.1-3.2,5
			c-0.8,1.9-1.1,3.9-1.1,6.1c0,2.2,0.4,4.2,1.1,6.1c0.8,1.9,1.8,3.5,3.2,5c1.4,1.4,2.9,2.5,4.7,3.4
			C454.1,474.7,456.1,475.1,458.2,475.1z"/>
		<path class="st0" d="M499.2,477.3c-2.4,0-4.6-0.5-6.7-1.4c-2.1-0.9-3.9-2.2-5.4-3.8c-1.5-1.6-2.7-3.5-3.6-5.7
			c-0.9-2.2-1.3-4.5-1.3-6.9c0-2.3,0.4-4.5,1.1-6.6c0.8-2.1,1.9-4,3.3-5.7c1.5-1.7,3.3-3,5.4-4c2.1-1,4.5-1.5,7.3-1.5
			c1.8,0,3.6,0.2,5.2,0.7c1.6,0.5,3.1,1.1,4.4,2c1.3,0.8,2.4,1.8,3.4,2.9l-1.3,1.7c-1.3-1.6-3-2.8-5.1-3.8c-2-1-4.3-1.4-6.7-1.4
			c-2.3,0-4.4,0.4-6.2,1.3c-1.8,0.9-3.3,2-4.6,3.5c-1.3,1.5-2.2,3.2-2.9,5c-0.7,1.9-1,3.8-1,5.9c0,2.2,0.4,4.3,1.1,6.2
			c0.7,1.9,1.8,3.6,3.1,5c1.3,1.4,2.9,2.6,4.6,3.4c1.8,0.8,3.7,1.2,5.7,1.2c1.7,0,3.3-0.3,4.9-0.8c1.6-0.6,3-1.4,4.3-2.4
			c1.3-1,2.3-2.3,3.1-3.8c0.8-1.5,1.1-3.1,1.1-5v-1.4H499V460h15.9v2.5c0,2.5-0.5,4.7-1.4,6.6c-0.9,1.8-2.2,3.4-3.7,4.6
			c-1.5,1.2-3.2,2.1-5.1,2.7C502.9,477,501.1,477.3,499.2,477.3z"/>
		<path class="st0" d="M523,476.7v-34.4h2.3v34.4H523z"/>
		<path class="st0" d="M535.6,476.7v-34.4h16.9v2h-14.6v14.1H552v2h-14.1v14.2h14.6v2H535.6z"/>
		<path class="st0" d="M568.2,477.3c-1.8,0-3.4-0.3-4.7-0.9c-1.3-0.6-2.5-1.3-3.4-2.1c-0.9-0.8-1.6-1.6-2.1-2.4
			c-0.5-0.8-0.9-1.3-1-1.7l1.4-1.5c0.2,0.4,0.5,0.9,1,1.6c0.5,0.7,1.1,1.4,1.9,2.1c0.8,0.7,1.8,1.4,2.9,1.9c1.2,0.5,2.5,0.8,4.1,0.8
			c1.5,0,2.9-0.3,4.1-0.8c1.2-0.5,2.3-1.4,3-2.4c0.8-1.1,1.1-2.4,1.1-4c0-1.3-0.3-2.5-0.8-3.4s-1.2-1.7-2.1-2.3
			c-0.9-0.6-1.9-1.2-3-1.6c-1.1-0.5-2.3-0.9-3.5-1.3c-0.8-0.3-1.7-0.6-2.6-1.1c-0.9-0.4-1.8-0.9-2.6-1.6c-0.8-0.6-1.5-1.4-2-2.4
			c-0.5-1-0.8-2.1-0.8-3.5c0-1.2,0.2-2.4,0.7-3.5c0.5-1.1,1.1-2,1.9-2.9c0.8-0.8,1.8-1.5,2.9-1.9c1.1-0.5,2.4-0.7,3.7-0.7
			c1.4,0,2.7,0.2,3.8,0.7c1.1,0.5,2.1,1.1,2.9,1.8c0.8,0.7,1.4,1.5,1.8,2.2l-1.3,1.4c-0.3-0.7-0.9-1.3-1.5-1.9
			c-0.7-0.6-1.5-1.1-2.5-1.5c-1-0.4-2-0.6-3.2-0.6c-1.5,0-2.8,0.3-3.9,1c-1.1,0.7-1.9,1.6-2.4,2.6c-0.6,1.1-0.8,2.2-0.8,3.3
			c0,1.1,0.2,2,0.7,2.7c0.4,0.7,1,1.4,1.7,1.9c0.7,0.5,1.5,0.9,2.3,1.3c0.8,0.3,1.7,0.7,2.5,0.9c1.3,0.5,2.5,1,3.7,1.5
			c1.2,0.5,2.3,1.2,3.3,1.9c1,0.8,1.8,1.7,2.4,2.8c0.6,1.1,0.9,2.5,0.9,4.1c0,2-0.5,3.7-1.4,5.1c-1,1.4-2.2,2.5-3.8,3.2
			S570.2,477.3,568.2,477.3z"/>
	</g>
</g>
</svg>
